<svg version="1.1" baseProfile="full" width="301.5" height="292" viewbox="0 0 301.5 292" xmlns="http://www.w3.org/2000/svg" xmlns:xlink="http://www.w3.org/1999/xlink" xmlns:ev="http://www.w3.org/2001/xml-events" style="font-weight:italic bold; font-size:11pt; font-family:'Helevetica-Regular', Helvetica, sans-serif;;stroke-width:3;stroke-linejoin:round;stroke-linecap:round">
  <title >nomnoml</title>
  <desc >[MOBILE|
#fill: transparent
#fontSize: 11
#spacing: 60
#font: Helevetica-Regular
  [iOS]--[OBJECTIVE C]
  [OBJECTIVE C]--[SWIFT]
  [ANDROID]--[JAVA]
]</desc>
  <rect x="0" y="0" height="292" width="301.5" style="stroke:none; fill:transparent;"></rect>
  <rect x="13.5" y="13.5" height="266" width="275.5" style="stroke:#33322E;fill:transparent;stroke-dasharray:none;"></rect>
  <text x="151.3" y="33.9" style="fill: #33322E;text-anchor: middle;">MOBILE</text>
  <path d="M13.5 43.5 L289 43.5" style="stroke:#33322E;fill:none;stroke-dasharray:none;"></path>
  <path d="M87 86.5 L87 116.5 L87 146.5 L87 146.5 " style="stroke:#33322E;fill:none;stroke-dasharray:6 6;"></path>
  <path d="M87 176.5 L87 206.5 L87 236.5 L87 236.5 " style="stroke:#33322E;fill:none;stroke-dasharray:6 6;"></path>
  <path d="M234.5 86.5 L234.5 116.5 L234.5 146.5 L234.5 146.5 " style="stroke:#33322E;fill:none;stroke-dasharray:6 6;"></path>
  <rect x="64.5" y="56.5" height="30" width="45" style="stroke:#33322E;fill:transparent;stroke-dasharray:none;"></rect>
  <text x="87" y="76.9" style="fill: #33322E;text-anchor: middle;">iOS</text>
  <rect x="26.5" y="146.5" height="30" width="121" style="stroke:#33322E;fill:transparent;stroke-dasharray:none;"></rect>
  <text x="87" y="166.9" style="fill: #33322E;text-anchor: middle;">OBJECTIVE C</text>
  <rect x="53.5" y="236.5" height="30" width="68" style="stroke:#33322E;fill:transparent;stroke-dasharray:none;"></rect>
  <text x="87.5" y="256.9" style="fill: #33322E;text-anchor: middle;">SWIFT</text>
  <rect x="193.5" y="56.5" height="30" width="83" style="stroke:#33322E;fill:transparent;stroke-dasharray:none;"></rect>
  <text x="235" y="76.9" style="fill: #33322E;text-anchor: middle;">ANDROID</text>
  <rect x="207.5" y="146.5" height="30" width="54" style="stroke:#33322E;fill:transparent;stroke-dasharray:none;"></rect>
  <text x="234.5" y="166.9" style="fill: #33322E;text-anchor: middle;">JAVA</text>
</svg>